<?xml version="1.0" encoding="UTF-8" standalone="no"?>
<!-- Created with Inkscape (http://www.inkscape.org/) -->

<svg
   xmlns:dc="http://purl.org/dc/elements/1.1/"
   xmlns:cc="http://creativecommons.org/ns#"
   xmlns:rdf="http://www.w3.org/1999/02/22-rdf-syntax-ns#"
   xmlns:svg="http://www.w3.org/2000/svg"
   xmlns="http://www.w3.org/2000/svg"
   xmlns:xlink="http://www.w3.org/1999/xlink"
   xmlns:sodipodi="http://sodipodi.sourceforge.net/DTD/sodipodi-0.dtd"
   xmlns:inkscape="http://www.inkscape.org/namespaces/inkscape"
   width="86"
   height="86"
   id="svg2"
   version="1.1"
   inkscape:version="0.92.1 r15371"
   sodipodi:docname="harbour-nextcloud.svg"
   inkscape:export-filename="/home/hauke/Programme/harbour-nextcloud/app/icons/108x108/harbour-owncloud.png"
   inkscape:export-xdpi="121.40516"
   inkscape:export-ydpi="121.40516">
  <defs
     id="defs4">
    <linearGradient
       id="linearGradient3789-6">
      <stop
         style="stop-color:#1b2d43;stop-opacity:0.93333334"
         offset="0"
         id="stop3791-0" />
      <stop
         style="stop-color:#1b2d43;stop-opacity:1"
         offset="1"
         id="stop3793-4" />
    </linearGradient>
    <linearGradient
       y2="339.22189"
       x2="288.49411"
       y1="55.888199"
       x1="288.49411"
       gradientUnits="userSpaceOnUse"
       id="linearGradient3353"
       xlink:href="#SVGID_1_"
       inkscape:collect="always" />
    <linearGradient
       y2="339.22159"
       x2="251.2114"
       y1="55.888199"
       x1="251.2114"
       gradientUnits="userSpaceOnUse"
       id="linearGradient3355"
       xlink:href="#SVGID_2_"
       inkscape:collect="always" />
    <linearGradient
       y2="339.22171"
       x2="293.22461"
       y1="55.888199"
       x1="293.22461"
       gradientUnits="userSpaceOnUse"
       id="linearGradient3357"
       xlink:href="#SVGID_3_"
       inkscape:collect="always" />
    <linearGradient
       y2="339.22159"
       x2="375.33401"
       y1="55.888199"
       x1="375.33401"
       gradientUnits="userSpaceOnUse"
       id="linearGradient3359"
       xlink:href="#SVGID_4_"
       inkscape:collect="always" />
    <linearGradient
       y2="339.22159"
       x2="334.49411"
       y1="55.888199"
       x1="334.49411"
       gradientUnits="userSpaceOnUse"
       id="linearGradient3361"
       xlink:href="#SVGID_5_"
       inkscape:collect="always" />
    <linearGradient
       y2="339.2236"
       x2="458.42679"
       y1="55.8867"
       x1="458.42679"
       gradientUnits="userSpaceOnUse"
       id="linearGradient3363"
       xlink:href="#SVGID_6_"
       inkscape:collect="always" />
    <linearGradient
       y2="339.22131"
       x2="413.16309"
       y1="55.888199"
       x1="413.16309"
       gradientUnits="userSpaceOnUse"
       id="linearGradient3365"
       xlink:href="#SVGID_7_"
       inkscape:collect="always" />
    <linearGradient
       y2="339.2236"
       x2="290.76169"
       y1="55.8867"
       x1="290.76169"
       gradientUnits="userSpaceOnUse"
       id="linearGradient3367"
       xlink:href="#SVGID_8_"
       inkscape:collect="always" />
    <linearGradient
       y2="339.22119"
       x2="346.77341"
       y1="55.888199"
       x1="346.77341"
       gradientUnits="userSpaceOnUse"
       id="linearGradient3369"
       xlink:href="#SVGID_9_"
       inkscape:collect="always" />
    <linearGradient
       id="SVGID_1_"
       gradientUnits="userSpaceOnUse"
       x1="288.49411"
       y1="55.888199"
       x2="288.49411"
       y2="339.22189">
      <stop
         offset="0"
         style="stop-color:#BED5E1"
         id="stop261" />
      <stop
         offset="1"
         style="stop-color:#567B8F"
         id="stop263" />
    </linearGradient>
    <linearGradient
       id="SVGID_2_"
       gradientUnits="userSpaceOnUse"
       x1="251.2114"
       y1="55.888199"
       x2="251.2114"
       y2="339.22159">
      <stop
         offset="0"
         style="stop-color:#BED5E1"
         id="stop268" />
      <stop
         offset="1"
         style="stop-color:#567B8F"
         id="stop270" />
    </linearGradient>
    <linearGradient
       id="SVGID_3_"
       gradientUnits="userSpaceOnUse"
       x1="293.22461"
       y1="55.888199"
       x2="293.22461"
       y2="339.22171">
      <stop
         offset="0"
         style="stop-color:#BED5E1"
         id="stop275" />
      <stop
         offset="1"
         style="stop-color:#567B8F"
         id="stop277" />
    </linearGradient>
    <linearGradient
       id="SVGID_4_"
       gradientUnits="userSpaceOnUse"
       x1="375.33401"
       y1="55.888199"
       x2="375.33401"
       y2="339.22159">
      <stop
         offset="0"
         style="stop-color:#BED5E1"
         id="stop282" />
      <stop
         offset="1"
         style="stop-color:#567B8F"
         id="stop284" />
    </linearGradient>
    <linearGradient
       id="SVGID_5_"
       gradientUnits="userSpaceOnUse"
       x1="334.49411"
       y1="55.888199"
       x2="334.49411"
       y2="339.22159">
      <stop
         offset="0"
         style="stop-color:#BED5E1"
         id="stop289" />
      <stop
         offset="1"
         style="stop-color:#567B8F"
         id="stop291" />
    </linearGradient>
    <linearGradient
       id="SVGID_6_"
       gradientUnits="userSpaceOnUse"
       x1="458.42679"
       y1="55.8867"
       x2="458.42679"
       y2="339.2236">
      <stop
         offset="0"
         style="stop-color:#BED5E1"
         id="stop296" />
      <stop
         offset="1"
         style="stop-color:#567B8F"
         id="stop298" />
    </linearGradient>
    <linearGradient
       id="SVGID_7_"
       gradientUnits="userSpaceOnUse"
       x1="413.16309"
       y1="55.888199"
       x2="413.16309"
       y2="339.22131">
      <stop
         offset="0"
         style="stop-color:#BED5E1"
         id="stop303" />
      <stop
         offset="1"
         style="stop-color:#567B8F"
         id="stop305" />
    </linearGradient>
    <linearGradient
       id="SVGID_8_"
       gradientUnits="userSpaceOnUse"
       x1="290.76169"
       y1="55.8867"
       x2="290.76169"
       y2="339.2236">
      <stop
         offset="0"
         style="stop-color:#BED5E1"
         id="stop310" />
      <stop
         offset="1"
         style="stop-color:#567B8F"
         id="stop312" />
    </linearGradient>
    <linearGradient
       id="SVGID_9_"
       gradientUnits="userSpaceOnUse"
       x1="346.77341"
       y1="55.888199"
       x2="346.77341"
       y2="339.22119">
      <stop
         offset="0"
         style="stop-color:#BED5E1"
         id="stop317" />
      <stop
         offset="1"
         style="stop-color:#567B8F"
         id="stop319" />
    </linearGradient>
  </defs>
  <sodipodi:namedview
     id="base"
     pagecolor="#ffffff"
     bordercolor="#666666"
     borderopacity="1.0"
     inkscape:pageopacity="0.0"
     inkscape:pageshadow="2"
     inkscape:zoom="7.9999999"
     inkscape:cx="14.484598"
     inkscape:cy="41.78117"
     inkscape:document-units="px"
     inkscape:current-layer="layer2"
     showgrid="true"
     inkscape:window-width="1920"
     inkscape:window-height="1016"
     inkscape:window-x="0"
     inkscape:window-y="27"
     inkscape:window-maximized="1"
     inkscape:snap-bbox="true"
     inkscape:snap-global="true">
    <inkscape:grid
       type="xygrid"
       id="grid2985"
       empspacing="5"
       visible="true"
       enabled="true"
       snapvisiblegridlinesonly="true" />
    <sodipodi:guide
       position="0,0"
       orientation="0,86"
       id="guide4694"
       inkscape:locked="false" />
    <sodipodi:guide
       position="86,0"
       orientation="-86,0"
       id="guide4696"
       inkscape:locked="false" />
    <sodipodi:guide
       position="86,86"
       orientation="0,-86"
       id="guide4698"
       inkscape:locked="false" />
    <sodipodi:guide
       position="0,86"
       orientation="86,0"
       id="guide4700"
       inkscape:locked="false" />
  </sodipodi:namedview>
  <metadata
     id="metadata7">
    <rdf:RDF>
      <cc:Work
         rdf:about="">
        <dc:format>image/svg+xml</dc:format>
        <dc:type
           rdf:resource="http://purl.org/dc/dcmitype/StillImage" />
        <dc:title></dc:title>
      </cc:Work>
    </rdf:RDF>
  </metadata>
  <g
     inkscape:groupmode="layer"
     id="layer2"
     inkscape:label="Ebene"
     style="display:inline"
     transform="translate(0,-4)">
    <path
       inkscape:connector-curvature="0"
       style="fill:#0082c9;fill-opacity:1"
       id="path11"
       d="M 84.277,4.3 H 43 C 19.417,4.3 0.3,23.418 0.3,47 v 41.277 c 0,0.786 0.637,1.423 1.423,1.423 H 43 C 66.583,89.7 85.7,70.582 85.7,47 V 5.723 C 85.7,4.937 85.063,4.3 84.277,4.3 Z"
       inkscape:export-filename="/home/hauke/Programme/harbour-nextcloud/app/icons/256x256/harbour-nextcloud.png"
       inkscape:export-xdpi="287.78"
       inkscape:export-ydpi="287.78" />
    <path
       style="fill:#1b2b43;fill-opacity:0"
       d="m 76.670771,60.999268 -3.24577,-3.249332 0.55053,-0.463242 c 0.302792,-0.254782 0.763412,-0.898356 1.023601,-1.430162 1.562106,-3.192829 -0.796185,-6.971801 -4.350795,-6.971801 H 69.9987 l -0.118106,1.281631 c -0.06496,0.704898 -0.24754,1.744659 -0.405736,2.310583 -0.277078,0.991198 -0.299212,1.017143 -0.603268,0.707107 -0.291036,-0.296762 -0.295836,-0.397178 -0.06159,-1.288448 0.799082,-3.040371 -0.209081,-6.531782 -2.553967,-8.844742 -1.384423,-1.365574 -2.507466,-2.003025 -4.366547,-2.478498 -1.621997,-0.414836 -2.564411,-0.433732 -4.213057,-0.08447 -1.17771,0.249496 -1.693859,0.168631 -1.693859,-0.265372 0,-0.149846 2.083409,-0.706953 2.643788,-0.706953 0.469204,0 0.471788,-0.489296 0.01046,-1.982867 -1.059527,-3.43035 -3.97056,-5.74693 -7.651534,-6.089039 l -1.21896,-0.113291 0.03023,0.866423 c 0.01664,0.476533 0.02316,1.097515 0.01453,1.37996 -0.01536,0.502153 -0.02354,0.506444 -0.369261,0.193572 -0.21361,-0.193314 -0.353554,-0.544467 -0.353554,-0.887154 0,-2.001871 -1.056769,-4.492958 -2.531698,-5.967888 -1.513775,-1.513776 -4.033251,-2.602511 -6.022547,-2.602511 -0.491949,0 -1.527248,-0.976715 -9.654396,-9.108077 C 23.631961,7.953261 21.830333,6.0616938 22.041445,5.9252906 22.772646,5.4528494 25.151432,4.2898712 26.704761,3.6454154 30.325692,2.1431383 34.579495,1.0424413 38.342128,0.63417676 39.452658,0.51367873 47.978089,0.44791647 62.488944,0.44791647 h 22.430208 l 0.336758,0.37218361 c 0.327442,0.36188762 0.336758,0.99395512 0.336758,22.84838792 0,17.700679 -0.04997,22.851802 -0.235164,24.243972 -0.715007,5.374838 -2.330142,10.529919 -4.66379,14.885586 l -0.777171,1.450555 z"
       id="path4670"
       inkscape:connector-curvature="0"
       transform="translate(0,4)" />
    <path
       style="fill:#1b2b43;fill-opacity:0"
       d="m 57.523362,68.00966 -9.837828,-9.844152 0.922345,-0.40096 c 1.308123,-0.568665 3.156429,-2.006878 4.095781,-3.187029 1.848475,-2.322324 2.75046,-4.883843 2.745968,-7.798191 -0.0033,-2.115759 -0.339158,-3.572903 -1.265394,-5.489371 -1.020712,-2.111947 -3.139713,-4.233384 -5.272731,-5.278791 -0.826431,-0.405039 -2.019673,-0.869478 -2.65165,-1.032084 -1.512005,-0.389038 -4.31129,-0.3801 -5.833631,0.01863 -3.393397,0.888789 -6.482681,3.354248 -7.898558,6.303581 -0.274085,0.570931 -0.548257,1.039101 -0.609273,1.040379 -0.06102,0.0012 -0.204752,-0.110717 -0.319413,-0.248877 -0.164365,-0.198047 -0.10804,-0.45053 0.266191,-1.193243 0.261067,-0.518123 0.614764,-1.140917 0.785993,-1.383985 0.306172,-0.434624 0.299781,-0.460966 -0.385918,-1.59099 -0.383485,-0.631976 -0.825248,-1.606458 -0.981697,-2.165514 l -0.284455,-1.016466 h -1.082925 c -1.218328,0 -2.781569,0.359799 -3.783048,0.870717 l -0.670514,0.34207 -8.692131,-8.693928 -8.6921309,-8.693927 1.3558697,-1.767767 C 10.981078,14.782976 14.438584,11.257827 16.358517,9.7399889 22.556682,4.8399156 29.87552,1.7406728 37.658026,0.72047527 39.435383,0.48748422 42.938235,0.44791647 61.787101,0.44791647 h 22.049877 l 0.930878,0.94258723 0.93088,0.9425872 -0.06267,22.2593541 c -0.06098,21.65712 -0.07278,22.32153 -0.436325,24.557451 -1.822968,11.211886 -7.158702,20.377703 -15.911692,27.333385 -0.719209,0.571528 -1.446974,1.113705 -1.617254,1.204836 -0.258161,0.138165 -1.944164,-1.469918 -10.147428,-9.678457 z m 4.250461,-9.13803 c 3.408363,-0.803602 6.220472,-3.615711 7.024074,-7.024073 0.515769,-2.187561 0.284992,-4.135916 -0.748769,-6.321583 -1.632996,-3.452613 -5.690472,-5.682114 -9.414447,-5.173048 -1.790276,0.24473 -3.423387,0.868421 -3.294972,1.258362 0.805617,2.446342 0.871037,2.818837 0.889315,5.063735 0.01391,1.709688 -0.06232,2.592301 -0.297782,3.447145 -0.442661,1.607107 -1.399475,3.467666 -2.460304,4.784142 l -0.90202,1.119394 0.833611,0.754718 c 2.158957,1.954629 5.456627,2.77841 8.371294,2.091208 z m 11.028991,-0.856764 c 1.651059,-0.805474 2.625194,-2.397325 2.625194,-4.289879 0,-2.610612 -1.735746,-4.499262 -4.389963,-4.776681 l -1.035558,-0.108239 -0.123035,1.475308 c -0.193148,2.316002 -0.774747,3.732873 -2.516363,6.13028 -0.272236,0.374745 -0.270813,0.424492 0.02139,0.747369 0.17217,0.190245 0.719943,0.551662 1.217274,0.80315 0.783158,0.39602 1.081773,0.448959 2.230065,0.395347 0.795712,-0.03715 1.58379,-0.187751 1.971,-0.376655 z M 56.336125,40.045897 c 0.826431,-0.28908 1.770169,-0.526664 2.097197,-0.527965 l 0.594597,-0.0024 -0.125485,-0.839689 C 58.503863,36.008791 56.670333,33.583229 54.06348,32.274433 53.238534,31.860261 51.299067,31.3919 50.38813,31.386873 l -0.556306,-0.0031 0.01085,1.458408 c 0.006,0.802124 -0.04613,1.706965 -0.115782,2.010757 -0.119041,0.519243 -0.07608,0.581972 0.716703,1.046577 1.081343,0.633709 3.214972,2.765231 3.846286,3.842487 0.268867,0.458788 0.501178,0.833095 0.516246,0.831794 0.01506,-0.0013 0.703563,-0.238885 1.529994,-0.527964 z M 34.794753,37.142055 c 1.487164,-1.376886 3.842384,-2.590682 5.878366,-3.0295 2.006933,-0.432555 4.837586,-0.285454 6.714582,0.348941 0.766157,0.258948 1.426278,0.437549 1.466939,0.39689 0.04066,-0.04066 0.11801,-0.620304 0.171894,-1.288101 0.193252,-2.395068 -0.668748,-4.687006 -2.467179,-6.559884 -4.202884,-4.376868 -11.392403,-3.176195 -14.026041,2.342392 -1.036285,2.171454 -1.095075,5.053497 -0.145479,7.131499 0.501677,1.097815 0.919817,1.793838 1.077661,1.793838 0.0562,0 0.654371,-0.511233 1.329257,-1.136075 z m -6.678219,-3.022396 c 0.596402,-0.140647 1.462228,-0.256897 1.924057,-0.258334 l 0.839689,-0.0026 v -1.023519 c 0,-0.562937 0.128904,-1.497644 0.286454,-2.077126 0.520157,-1.91318 0.546274,-1.773064 -0.389967,-2.092073 -2.30181,-0.784305 -4.532652,0.0043 -5.609642,1.98313 -0.642595,1.180658 -0.773116,2.344827 -0.404898,3.611451 l 0.288162,0.991242 0.990889,-0.438219 c 0.544988,-0.241021 1.478854,-0.553293 2.075256,-0.693939 z"
       id="path4672"
       inkscape:connector-curvature="0"
       transform="translate(0,4)" />
    <g
       id="g5406"
       transform="translate(-2)">
      <path
         inkscape:connector-curvature="0"
         id="XMLID_107_"
         d="M 45.412022,23.340562 C 38.108707,23.340562 31.918535,28.291728 30,35 c -1.667412,-3.558169 -5.280747,-6.050965 -9.442684,-6.050965 -5.72364,0 -10.428628,4.704987 -10.428628,10.428626 0,5.723639 4.704988,10.430773 10.428628,10.430773 4.161937,0 7.775272,-2.494324 9.442684,-6.053114 1.918535,6.708778 8.108707,11.661589 15.412022,11.661589 7.249304,0 13.407907,-4.878116 15.375512,-11.511226 1.698224,3.478003 5.266838,5.902751 9.369656,5.902751 5.723645,0 10.430779,-4.707134 10.430779,-10.430773 0,-5.723639 -4.707134,-10.428626 -10.430779,-10.428626 -4.102818,0 -7.671432,2.423226 -9.369656,5.900605 C 58.819929,28.217045 52.661326,23.340562 45.412022,23.340562 Z m 0,6.121849 c 5.513174,0 9.917404,4.402091 9.917404,9.91525 0,5.513159 -4.40423,9.917399 -9.917404,9.917399 -5.51315,0 -9.915241,-4.40424 -9.915241,-9.917399 0,-5.513159 4.402091,-9.915249 9.915241,-9.91525 z m -24.854706,5.608475 c 2.415442,0 4.308922,1.891328 4.308922,4.306775 0,2.415447 -1.89348,4.308923 -4.308922,4.308923 -2.41545,0 -4.306781,-1.893476 -4.306781,-4.308923 0,-2.415447 1.891331,-4.306775 4.306781,-4.306775 z m 49.599874,0 c 2.415454,0 4.308924,1.891328 4.308924,4.306775 0,2.415447 -1.893481,4.308923 -4.308924,4.308923 -2.415438,0 -4.306768,-1.893476 -4.306768,-4.308923 0,-2.415447 1.891342,-4.306775 4.306768,-4.306775 z"
         style="color:#000000;font-style:normal;font-variant:normal;font-weight:normal;font-stretch:normal;font-size:medium;line-height:normal;font-family:sans-serif;text-indent:0;text-align:start;text-decoration:none;text-decoration-line:none;text-decoration-style:solid;text-decoration-color:#000000;letter-spacing:normal;word-spacing:normal;text-transform:none;writing-mode:lr-tb;direction:ltr;baseline-shift:baseline;text-anchor:start;white-space:normal;clip-rule:nonzero;display:inline;overflow:visible;visibility:visible;opacity:1;isolation:auto;mix-blend-mode:normal;color-interpolation:sRGB;color-interpolation-filters:linearRGB;solid-color:#000000;solid-opacity:1;fill:#ffffff;fill-opacity:1;fill-rule:nonzero;stroke:none;stroke-width:3.44334292;stroke-linecap:butt;stroke-linejoin:miter;stroke-miterlimit:10;stroke-dasharray:none;stroke-dashoffset:0;stroke-opacity:1;color-rendering:auto;image-rendering:auto;shape-rendering:auto;text-rendering:auto;enable-background:accumulate" />
      <g
         style="opacity:1;fill:#ffffff;fill-opacity:1"
         transform="matrix(0.2910037,0,0,0.2910037,17.174615,48.556495)"
         id="g4571">
        <path
           style="fill:#ffffff;fill-opacity:1"
           inkscape:connector-curvature="0"
           d="m 37.669669,48.9 c 5.9,0 9.2,4.2 9.2,10.5 0,0.6 -0.5,1.1 -1.1,1.1 h -15.9 c 0.1,5.6 4,8.8 8.5,8.8 2.8,0 4.8,-1.2 5.8,-2 0.6,-0.4 1.1,-0.3 1.4,0.3 l 0.3,0.5 c 0.3,0.5 0.2,1 -0.3,1.4 -1.2,0.9 -3.8,2.4 -7.3,2.4 -6.5,0 -11.5,-4.7 -11.5,-11.5 0.1,-7.2 4.9,-11.5 10.9,-11.5 z m 6.1,9.4 c -0.2,-4.6 -3,-6.9 -6.2,-6.9 -3.7,0 -6.9,2.4 -7.6,6.9 z"
           id="XMLID_121_" />
        <path
           style="fill:#ffffff;fill-opacity:1"
           inkscape:connector-curvature="0"
           d="m 76.9,52.1 v -2.5 -5.2 c 0,-0.7 0.4,-1.1 1.1,-1.1 h 0.8 c 0.7,0 1,0.4 1,1.1 v 5.2 h 4.5 c 0.7,0 1.1,0.4 1.1,1.1 V 51 c 0,0.7 -0.4,1 -1.1,1 h -4.5 v 11 c 0,5.1 3.1,5.7 4.8,5.8 0.9,0.1 1.2,0.3 1.2,1.1 v 0.6 c 0,0.7 -0.3,1 -1.2,1 -4.8,0 -7.7,-2.9 -7.7,-8.1 z"
           id="XMLID_119_" />
        <path
           style="fill:#ffffff;fill-opacity:1"
           inkscape:connector-curvature="0"
           d="m 99.8,48.9 c 3.8,0 6.2,1.6 7.3,2.5 0.5,0.4 0.6,0.9 0.1,1.5 l -0.3,0.5 c -0.4,0.6 -0.9,0.6 -1.5,0.2 -1,-0.7 -2.9,-2 -5.5,-2 -4.8,0 -8.6,3.6 -8.6,8.9 0,5.2 3.8,8.8 8.6,8.8 3.1,0 5.2,-1.4 6.2,-2.3 0.6,-0.4 1,-0.3 1.4,0.3 l 0.3,0.4 c 0.3,0.6 0.2,1 -0.3,1.5 -1.1,0.9 -3.8,2.8 -7.8,2.8 -6.5,0 -11.5,-4.7 -11.5,-11.5 0.1,-6.8 5.1,-11.6 11.6,-11.6 z"
           id="XMLID_117_" />
        <path
           style="fill:#ffffff;fill-opacity:1"
           inkscape:connector-curvature="0"
           d="m 113.1,41.8 c 0,-0.7 -0.4,-1.1 0.3,-1.1 h 0.8 c 0.7,0 1.8,0.4 1.8,1.1 v 23.9 c 0,2.8 1.3,3.1 2.3,3.2 0.5,0 0.9,0.3 0.9,1 v 0.7 c 0,0.7 -0.3,1.1 -1.1,1.1 -1.8,0 -5,-0.6 -5,-5.4 z"
           id="XMLID_115_" />
        <path
           style="fill:#ffffff;fill-opacity:1"
           inkscape:connector-curvature="0"
           d="m 133.6,48.9 c 6.4,0 11.6,4.9 11.6,11.4 0,6.6 -5.2,11.6 -11.6,11.6 -6.4,0 -11.6,-5 -11.6,-11.6 0,-6.5 5.2,-11.4 11.6,-11.4 z m 0,20.4 c 4.7,0 8.5,-3.8 8.5,-9 0,-5 -3.8,-8.7 -8.5,-8.7 -4.7,0 -8.6,3.8 -8.6,8.7 0.1,5.1 3.9,9 8.6,9 z"
           id="XMLID_112_" />
        <path
           style="fill:#ffffff;fill-opacity:1"
           inkscape:connector-curvature="0"
           d="m 183.5,48.9 c 5.3,0 7.2,4.4 7.2,4.4 h 0.1 c 0,0 -0.1,-0.7 -0.1,-1.7 v -9.9 c 0,-0.7 -0.3,-1.1 0.4,-1.1 h 0.8 c 0.7,0 1.8,0.4 1.8,1.1 v 28.5 c 0,0.7 -0.3,1.1 -1,1.1 H 192 c -0.7,0 -1.1,-0.3 -1.1,-1 v -1.7 c 0,-0.8 0.2,-1.4 0.2,-1.4 H 191 c 0,0 -1.9,4.6 -7.6,4.6 -5.9,0 -9.6,-4.7 -9.6,-11.5 -0.2,-6.8 3.9,-11.4 9.7,-11.4 z m 0.1,20.4 c 3.7,0 7.1,-2.6 7.1,-8.9 0,-4.5 -2.3,-8.8 -7,-8.8 -3.9,0 -7.1,3.2 -7.1,8.8 0.1,5.4 2.9,8.9 7,8.9 z"
           id="XMLID_109_" />
        <path
           id="XMLID_103_"
           d="m 1,71.4 h 0.8 c 0.7,0 1.1,-0.4 1.1,-1.1 V 48.827665 C 2.9,45.427665 6.6,43 10.8,43 c 4.2,0 7.9,2.427665 7.9,5.827665 L 18.7,70.3 c 0,0.7 0.4,1.1 1.1,1.1 h 0.8 c 0.7,0 1,-0.4 1,-1.1 V 48.7 c 0,-5.7 -5.7,-8.5 -10.9,-8.5 v 0 0 0 0 C 5.7,40.2 0,43 0,48.7 v 21.6 c 0,0.7 0.3,1.1 1,1.1 z"
           inkscape:connector-curvature="0"
           style="fill:#ffffff;fill-opacity:1"
           sodipodi:nodetypes="ssssssssssscccccsss" />
        <path
           id="XMLID_102_"
           d="m 167.9,49.4 h -0.8 c -0.7,0 -1.1,0.4 -1.1,1.1 v 12.1 c 0,3.4 -2.2,6.5 -6.5,6.5 -4.2,0 -6.5,-3.1 -6.5,-6.5 V 50.5 c 0,-0.7 -0.4,-1.1 -1.1,-1.1 h -0.8 c -0.7,0 -1,0.4 -1,1.1 v 12.9 c 0,5.7 4.2,8.5 9.4,8.5 v 0 c 0,0 0,0 0,0 0,0 0,0 0,0 v 0 c 5.2,0 9.4,-2.8 9.4,-8.5 V 50.5 c 0.1,-0.7 -0.3,-1.1 -1,-1.1 z"
           inkscape:connector-curvature="0"
           style="fill:#ffffff;fill-opacity:1" />
        <path
           style="fill:#ffffff;fill-opacity:1"
           d="m 68.908203,49.235938 c -0.244942,0.0391 -0.480102,0.202589 -0.705078,0.470703 l -4.046875,4.824218 -3.029297,3.609375 -4.585937,-5.466796 -2.488282,-2.966797 c -0.224975,-0.268116 -0.479748,-0.414718 -0.74414,-0.4375 -0.264393,-0.02278 -0.538524,0.07775 -0.806641,0.302734 l -0.613281,0.513672 c -0.536232,0.449952 -0.508545,0.948144 -0.05859,1.484375 l 4.048828,4.824219 3.357422,4 -4.916016,5.857421 c -0.0037,0.0044 -0.0061,0.0093 -0.0098,0.01367 l -2.480469,2.955078 c -0.449952,0.536232 -0.399531,1.100832 0.136719,1.550782 l 0.613281,0.511718 c 0.536231,0.449951 1.022704,0.33701 1.472656,-0.199218 l 4.046875,-4.824219 3.029297,-3.609375 4.585938,5.466797 c 0.003,0.0036 0.0067,0.0062 0.0098,0.0098 l 2.480469,2.957032 c 0.44995,0.536231 1.012595,0.584735 1.548828,0.134765 l 0.613282,-0.513671 c 0.536231,-0.449952 0.508544,-0.948144 0.05859,-1.484376 l -4.048828,-4.824218 -3.357422,-4 4.916016,-5.857422 c 0.0037,-0.0044 0.0061,-0.0093 0.0098,-0.01367 l 2.480469,-2.955078 c 0.449952,-0.53623 0.399532,-1.10083 -0.136719,-1.550781 l -0.613281,-0.513672 c -0.268115,-0.224976 -0.522636,-0.308636 -0.767578,-0.269531 z"
           id="path4165-9"
           inkscape:connector-curvature="0" />
      </g>
    </g>
  </g>
</svg>
